<svg width="7" height="10" viewBox="0 0 7 10" fill="none" xmlns="http://www.w3.org/2000/svg">
<path fill-rule="evenodd" clip-rule="evenodd" d="M1.1543 3.9455C1.1543 3.62188 1.41663 3.35953 1.74023 3.35953H3.61523C3.93884 3.35953 4.20117 3.62188 4.20117 3.9455V8.98481C4.20117 9.30843 3.93884 9.57078 3.61523 9.57078C3.29163 9.57078 3.0293 9.30843 3.0293 8.98481V4.53147H1.74023C1.41663 4.53147 1.1543 4.26912 1.1543 3.9455Z" fill="#677272"/>
<path fill-rule="evenodd" clip-rule="evenodd" d="M0.890625 9.10201C0.890625 8.77839 1.15296 8.51604 1.47656 8.51604H5.51953C5.84314 8.51604 6.10547 8.77839 6.10547 9.10201C6.10547 9.42563 5.84314 9.68797 5.51953 9.68797H1.47656C1.15296 9.68797 0.890625 9.42563 0.890625 9.10201Z" fill="#677272"/>
<path d="M3.49804 2.18759C3.31262 2.18759 3.13136 2.13261 2.97719 2.02959C2.82302 1.92657 2.70286 1.78014 2.6319 1.60883C2.56094 1.43752 2.54238 1.24901 2.57855 1.06714C2.61473 0.885274 2.70401 0.71822 2.83513 0.587101C2.96624 0.455983 3.13329 0.366691 3.31514 0.330515C3.497 0.29434 3.6855 0.312906 3.85681 0.383867C4.02812 0.454828 4.17453 0.574995 4.27755 0.729174C4.38056 0.883353 4.43555 1.06462 4.43555 1.25005C4.43555 1.4987 4.33677 1.73717 4.16096 1.91299C3.98514 2.08882 3.74668 2.18759 3.49804 2.18759Z" fill="#677272"/>
</svg>
